<svg width="114" height="100" viewBox="0 0 114 100" fill="none" xmlns="http://www.w3.org/2000/svg">
<circle cx="57" cy="50" r="50" fill="#9E1839"/>
<mask id="path-2-outside-1_17_6" maskUnits="userSpaceOnUse" x="17" y="30" width="80" height="46" fill="black">
<rect fill="white" x="17" y="30" width="80" height="46"/>
<path d="M50.2628 62.584L54.3908 67.72L48.8708 72.232L44.2148 66.472C42.0548 67.288 39.7988 67.672 37.3508 67.672C27.1268 67.864 19.3988 60.088 19.5428 50.248C19.3988 40.408 27.1268 32.536 37.3508 32.728C47.5748 32.536 55.3028 40.408 55.1588 50.248C55.1588 55.096 53.3828 59.464 50.2628 62.584ZM38.7428 59.704L34.9508 55L40.4708 50.488L44.8868 55.912C45.8948 54.328 46.4228 52.456 46.4228 50.248C46.4228 44.632 42.7748 40.6 37.3508 40.6C31.9268 40.6 28.2788 44.632 28.2788 50.248C28.2788 55.864 31.9268 59.8 37.3508 59.8C37.6868 59.8 38.1668 59.752 38.7428 59.704ZM89.544 62.584L93.672 67.72L88.152 72.232L83.496 66.472C81.336 67.288 79.08 67.672 76.632 67.672C66.408 67.864 58.68 60.088 58.824 50.248C58.68 40.408 66.408 32.536 76.632 32.728C86.856 32.536 94.584 40.408 94.44 50.248C94.44 55.096 92.664 59.464 89.544 62.584ZM78.024 59.704L74.232 55L79.752 50.488L84.168 55.912C85.176 54.328 85.704 52.456 85.704 50.248C85.704 44.632 82.056 40.6 76.632 40.6C71.208 40.6 67.56 44.632 67.56 50.248C67.56 55.864 71.208 59.8 76.632 59.8C76.968 59.8 77.448 59.752 78.024 59.704Z"/>
</mask>
<path d="M50.2628 62.584L54.3908 67.72L48.8708 72.232L44.2148 66.472C42.0548 67.288 39.7988 67.672 37.3508 67.672C27.1268 67.864 19.3988 60.088 19.5428 50.248C19.3988 40.408 27.1268 32.536 37.3508 32.728C47.5748 32.536 55.3028 40.408 55.1588 50.248C55.1588 55.096 53.3828 59.464 50.2628 62.584ZM38.7428 59.704L34.9508 55L40.4708 50.488L44.8868 55.912C45.8948 54.328 46.4228 52.456 46.4228 50.248C46.4228 44.632 42.7748 40.6 37.3508 40.6C31.9268 40.6 28.2788 44.632 28.2788 50.248C28.2788 55.864 31.9268 59.8 37.3508 59.8C37.6868 59.8 38.1668 59.752 38.7428 59.704ZM89.544 62.584L93.672 67.72L88.152 72.232L83.496 66.472C81.336 67.288 79.08 67.672 76.632 67.672C66.408 67.864 58.68 60.088 58.824 50.248C58.68 40.408 66.408 32.536 76.632 32.728C86.856 32.536 94.584 40.408 94.44 50.248C94.44 55.096 92.664 59.464 89.544 62.584ZM78.024 59.704L74.232 55L79.752 50.488L84.168 55.912C85.176 54.328 85.704 52.456 85.704 50.248C85.704 44.632 82.056 40.6 76.632 40.6C71.208 40.6 67.56 44.632 67.56 50.248C67.56 55.864 71.208 59.8 76.632 59.8C76.968 59.8 77.448 59.752 78.024 59.704Z" fill="#0E335E"/>
<path d="M50.2628 62.584L48.8485 61.1698L47.5799 62.4385L48.7039 63.8369L50.2628 62.584ZM54.3908 67.72L55.6565 69.2685L57.1923 68.0132L55.9496 66.4671L54.3908 67.72ZM48.8708 72.232L47.3154 73.4893L48.5795 75.0532L50.1365 73.7805L48.8708 72.232ZM44.2148 66.472L45.7701 65.2147L44.8609 64.0899L43.508 64.6011L44.2148 66.472ZM37.3508 67.672V65.672H37.332L37.3132 65.6724L37.3508 67.672ZM19.5428 50.248L21.5425 50.2773L21.543 50.248L21.5425 50.2187L19.5428 50.248ZM37.3508 32.728L37.3132 34.7276L37.3508 34.7284L37.3883 34.7276L37.3508 32.728ZM55.1588 50.248L53.159 50.2187L53.1588 50.2334V50.248H55.1588ZM38.7428 59.704L38.9088 61.6971L42.666 61.384L40.2998 58.4488L38.7428 59.704ZM34.9508 55L33.685 53.4515L32.147 54.7087L33.3937 56.2552L34.9508 55ZM40.4708 50.488L42.0217 49.2253L40.7565 47.6713L39.205 48.9395L40.4708 50.488ZM44.8868 55.912L43.3358 57.1747L45.0859 59.3243L46.5741 56.9857L44.8868 55.912ZM50.2628 62.584L48.7039 63.8369L52.8319 68.9729L54.3908 67.72L55.9496 66.4671L51.8216 61.3311L50.2628 62.584ZM54.3908 67.72L53.125 66.1715L47.605 70.6835L48.8708 72.232L50.1365 73.7805L55.6565 69.2685L54.3908 67.72ZM48.8708 72.232L50.4261 70.9747L45.7701 65.2147L44.2148 66.472L42.6594 67.7293L47.3154 73.4893L48.8708 72.232ZM44.2148 66.472L43.508 64.6011C41.5952 65.3236 39.5812 65.672 37.3508 65.672V67.672V69.672C40.0163 69.672 42.5143 69.2524 44.9216 68.3429L44.2148 66.472ZM37.3508 67.672L37.3132 65.6724C28.2023 65.8434 21.4153 58.9692 21.5425 50.2773L19.5428 50.248L17.543 50.2187C17.3822 61.2068 26.0512 69.8846 37.3883 69.6716L37.3508 67.672ZM19.5428 50.248L21.5425 50.2187C21.4151 41.5123 28.2169 34.5568 37.3132 34.7276L37.3508 32.728L37.3883 30.7284C26.0366 30.5152 17.3824 39.3037 17.543 50.2773L19.5428 50.248ZM37.3508 32.728L37.3883 34.7276C46.4846 34.5568 53.2864 41.5123 53.159 50.2187L55.1588 50.248L57.1585 50.2773C57.3191 39.3037 48.6649 30.5152 37.3132 30.7284L37.3508 32.728ZM55.1588 50.248H53.1588C53.1588 54.6027 51.568 58.4504 48.8485 61.1698L50.2628 62.584L51.677 63.9982C55.1975 60.4776 57.1588 55.5892 57.1588 50.248H55.1588ZM38.7428 59.704L40.2998 58.4488L36.5078 53.7448L34.9508 55L33.3937 56.2552L37.1857 60.9592L38.7428 59.704ZM34.9508 55L36.2165 56.5485L41.7365 52.0365L40.4708 50.488L39.205 48.9395L33.685 53.4515L34.9508 55ZM40.4708 50.488L38.9198 51.7507L43.3358 57.1747L44.8868 55.912L46.4377 54.6493L42.0217 49.2253L40.4708 50.488ZM44.8868 55.912L46.5741 56.9857C47.8095 55.0443 48.4228 52.7906 48.4228 50.248H46.4228H44.4228C44.4228 52.1214 43.98 53.6117 43.1994 54.8382L44.8868 55.912ZM46.4228 50.248H48.4228C48.4228 47.006 47.3652 44.0853 45.3854 41.9561C43.3938 39.8142 40.5833 38.6 37.3508 38.6V40.6V42.6C39.5422 42.6 41.2677 43.4018 42.4561 44.6799C43.6563 45.9707 44.4228 47.874 44.4228 50.248H46.4228ZM37.3508 40.6V38.6C34.1182 38.6 31.3077 39.8142 29.3161 41.9561C27.3363 44.0853 26.2788 47.006 26.2788 50.248H28.2788H30.2788C30.2788 47.874 31.0452 45.9707 32.2454 44.6799C33.4338 43.4018 35.1593 42.6 37.3508 42.6V40.6ZM28.2788 50.248H26.2788C26.2788 53.4916 27.3377 56.3941 29.3257 58.5022C31.3236 60.6206 34.1332 61.8 37.3508 61.8V59.8V57.8C35.1443 57.8 33.4179 57.0114 32.2358 55.7578C31.0438 54.4939 30.2788 52.6204 30.2788 50.248H28.2788ZM37.3508 59.8V61.8C37.7964 61.8 38.4108 61.7386 38.9088 61.6971L38.7428 59.704L38.5767 57.7109C37.9227 57.7654 37.5771 57.8 37.3508 57.8V59.8ZM89.544 62.584L88.1298 61.1698L86.8611 62.4385L87.9851 63.8369L89.544 62.584ZM93.672 67.72L94.9377 69.2685L96.4736 68.0132L95.2309 66.4671L93.672 67.72ZM88.152 72.232L86.5966 73.4893L87.8608 75.0532L89.4177 73.7805L88.152 72.232ZM83.496 66.472L85.0514 65.2147L84.1422 64.0899L82.7892 64.6011L83.496 66.472ZM76.632 67.672V65.672H76.6132L76.5944 65.6724L76.632 67.672ZM58.824 50.248L60.8238 50.2773L60.8242 50.248L60.8238 50.2187L58.824 50.248ZM76.632 32.728L76.5944 34.7276L76.632 34.7284L76.6696 34.7276L76.632 32.728ZM94.44 50.248L92.4402 50.2187L92.44 50.2334V50.248H94.44ZM78.024 59.704L78.1901 61.6971L81.9472 61.384L79.5811 58.4488L78.024 59.704ZM74.232 55L72.9663 53.4515L71.4282 54.7087L72.6749 56.2552L74.232 55ZM79.752 50.488L81.303 49.2253L80.0378 47.6713L78.4863 48.9395L79.752 50.488ZM84.168 55.912L82.617 57.1747L84.3671 59.3243L85.8553 56.9857L84.168 55.912ZM89.544 62.584L87.9851 63.8369L92.1131 68.9729L93.672 67.72L95.2309 66.4671L91.1029 61.3311L89.544 62.584ZM93.672 67.72L92.4063 66.1715L86.8863 70.6835L88.152 72.232L89.4177 73.7805L94.9377 69.2685L93.672 67.72ZM88.152 72.232L89.7074 70.9747L85.0514 65.2147L83.496 66.472L81.9406 67.7293L86.5966 73.4893L88.152 72.232ZM83.496 66.472L82.7892 64.6011C80.8765 65.3236 78.8625 65.672 76.632 65.672V67.672V69.672C79.2975 69.672 81.7955 69.2524 84.2028 68.3429L83.496 66.472ZM76.632 67.672L76.5944 65.6724C67.4835 65.8434 60.6966 58.9692 60.8238 50.2773L58.824 50.248L56.8242 50.2187C56.6634 61.2068 65.3325 69.8846 76.6696 69.6716L76.632 67.672ZM58.824 50.248L60.8238 50.2187C60.6964 41.5123 67.4981 34.5568 76.5944 34.7276L76.632 32.728L76.6696 30.7284C65.3179 30.5152 56.6636 39.3037 56.8242 50.2773L58.824 50.248ZM76.632 32.728L76.6696 34.7276C85.7659 34.5568 92.5676 41.5123 92.4402 50.2187L94.44 50.248L96.4398 50.2773C96.6004 39.3037 87.9461 30.5152 76.5944 30.7284L76.632 32.728ZM94.44 50.248H92.44C92.44 54.6027 90.8492 58.4504 88.1298 61.1698L89.544 62.584L90.9582 63.9982C94.4788 60.4776 96.44 55.5892 96.44 50.248H94.44ZM78.024 59.704L79.5811 58.4488L75.7891 53.7448L74.232 55L72.6749 56.2552L76.4669 60.9592L78.024 59.704ZM74.232 55L75.4977 56.5485L81.0177 52.0365L79.752 50.488L78.4863 48.9395L72.9663 53.4515L74.232 55ZM79.752 50.488L78.201 51.7507L82.617 57.1747L84.168 55.912L85.719 54.6493L81.303 49.2253L79.752 50.488ZM84.168 55.912L85.8553 56.9857C87.0908 55.0443 87.704 52.7906 87.704 50.248H85.704H83.704C83.704 52.1214 83.2612 53.6117 82.4807 54.8382L84.168 55.912ZM85.704 50.248H87.704C87.704 47.006 86.6464 44.0853 84.6667 41.9561C82.6751 39.8142 79.8646 38.6 76.632 38.6V40.6V42.6C78.8234 42.6 80.5489 43.4018 81.7373 44.6799C82.9376 45.9707 83.704 47.874 83.704 50.248H85.704ZM76.632 40.6V38.6C73.3994 38.6 70.5889 39.8142 68.5973 41.9561C66.6176 44.0853 65.56 47.006 65.56 50.248H67.56H69.56C69.56 47.874 70.3264 45.9707 71.5267 44.6799C72.7151 43.4018 74.4406 42.6 76.632 42.6V40.6ZM67.56 50.248H65.56C65.56 53.4916 66.619 56.3941 68.607 58.5022C70.6048 60.6206 73.4145 61.8 76.632 61.8V59.8V57.8C74.4255 57.8 72.6992 57.0114 71.517 55.7578C70.325 54.4939 69.56 52.6204 69.56 50.248H67.56ZM76.632 59.8V61.8C77.0776 61.8 77.6921 61.7386 78.1901 61.6971L78.024 59.704L77.8579 57.7109C77.2039 57.7654 76.8584 57.8 76.632 57.8V59.8Z" fill="#EEBC31" mask="url(#path-2-outside-1_17_6)"/>
</svg>
